<?xml version="1.0" encoding="UTF-8" standalone="no"?>
<!DOCTYPE svg PUBLIC "-//W3C//DTD SVG 1.1//EN"
 "http://www.w3.org/Graphics/SVG/1.1/DTD/svg11.dtd">
<!-- Generated by graphviz version 14.1.4 (20260321.0153)
 -->
<!-- Pages: 1 -->
<svg width="360pt" height="296pt"
 viewBox="0.00 0.00 360.00 296.00" xmlns="http://www.w3.org/2000/svg" xmlns:xlink="http://www.w3.org/1999/xlink">
<g id="graph0" class="graph" transform="scale(1 1) rotate(0) translate(4 291.61)">
<polygon fill="white" stroke="none" points="-4,4 -4,-291.61 355.61,-291.61 355.61,4 -4,4"/>
<!-- &#45;1 -->
<g id="node1" class="node">
<title>&#45;1</title>
<polygon fill="lightgray" stroke="black" points="23.5,-276 0,-276 0,-257.5 23.5,-257.5 23.5,-276"/>
<text xml:space="preserve" text-anchor="middle" x="11.75" y="-263.45" font-family="Times New Roman,serif" font-size="9.00">&#45;1</text>
</g>
<!-- &#45;2 -->
<g id="node2" class="node">
<title>&#45;2</title>
<polygon fill="lightgray" stroke="black" points="65.5,-276 42,-276 42,-257.5 65.5,-257.5 65.5,-276"/>
<text xml:space="preserve" text-anchor="middle" x="53.75" y="-263.45" font-family="Times New Roman,serif" font-size="9.00">&#45;2</text>
</g>
<!-- &#45;3 -->
<g id="node3" class="node">
<title>&#45;3</title>
<polygon fill="lightgray" stroke="black" points="107.5,-276 84,-276 84,-257.5 107.5,-257.5 107.5,-276"/>
<text xml:space="preserve" text-anchor="middle" x="95.75" y="-263.45" font-family="Times New Roman,serif" font-size="9.00">&#45;3</text>
</g>
<!-- &#45;4 -->
<g id="node4" class="node">
<title>&#45;4</title>
<polygon fill="lightgray" stroke="black" points="149.5,-276 126,-276 126,-257.5 149.5,-257.5 149.5,-276"/>
<text xml:space="preserve" text-anchor="middle" x="137.75" y="-263.45" font-family="Times New Roman,serif" font-size="9.00">&#45;4</text>
</g>
<!-- &#45;5 -->
<g id="node5" class="node">
<title>&#45;5</title>
<polygon fill="lightgray" stroke="black" points="191.5,-276 168,-276 168,-257.5 191.5,-257.5 191.5,-276"/>
<text xml:space="preserve" text-anchor="middle" x="179.75" y="-263.45" font-family="Times New Roman,serif" font-size="9.00">&#45;5</text>
</g>
<!-- 0 -->
<g id="node6" class="node">
<title>0</title>
<ellipse fill="lightblue" stroke="black" cx="150.75" cy="-185.84" rx="14.5" ry="14.5"/>
<text xml:space="preserve" text-anchor="middle" x="150.75" y="-182.54" font-family="Times New Roman,serif" font-size="9.00">0</text>
</g>
<!-- &#45;5&#45;&gt;0 -->
<g id="edge8" class="edge">
<title>&#45;5&#45;&gt;0</title>
<path fill="none" stroke="red" stroke-width="2.02" d="M176.54,-257C172.55,-246.15 165.58,-227.21 159.9,-211.73"/>
<polygon fill="red" stroke="red" stroke-width="2.02" points="163.3,-210.85 156.57,-202.68 156.73,-213.27 163.3,-210.85"/>
</g>
<!-- 1253 -->
<g id="node7" class="node">
<title>1253</title>
<ellipse fill="white" stroke="black" cx="207.75" cy="-185.84" rx="24.04" ry="24.04"/>
<text xml:space="preserve" text-anchor="middle" x="207.75" y="-182.54" font-family="Times New Roman,serif" font-size="9.00">1253</text>
</g>
<!-- &#45;5&#45;&gt;1253 -->
<g id="edge3" class="edge">
<title>&#45;5&#45;&gt;1253</title>
<path fill="none" stroke="red" stroke-width="0.17" stroke-dasharray="1,5" d="M182.85,-257C186.16,-247.68 191.6,-232.37 196.54,-218.42"/>
<polygon fill="red" stroke="red" stroke-width="0.17" points="199.73,-219.91 199.78,-209.32 193.13,-217.57 199.73,-219.91"/>
</g>
<!-- 237 -->
<g id="node9" class="node">
<title>237</title>
<ellipse fill="white" stroke="black" cx="207.75" cy="-20.86" rx="20.86" ry="20.86"/>
<text xml:space="preserve" text-anchor="middle" x="207.75" y="-17.56" font-family="Times New Roman,serif" font-size="9.00">237</text>
</g>
<!-- 1253&#45;&gt;237 -->
<g id="edge4" class="edge">
<title>1253&#45;&gt;237</title>
<path fill="none" stroke="red" stroke-width="0.22" stroke-dasharray="1,5" d="M193.75,-165.71C186.53,-154.65 178.48,-140.12 174.75,-125.8 169.36,-105.12 169.12,-98.33 174.75,-77.72 177.77,-66.69 183.58,-55.62 189.5,-46.28"/>
<polygon fill="red" stroke="red" stroke-width="0.22" points="192.26,-48.44 194.93,-38.19 186.45,-44.54 192.26,-48.44"/>
</g>
<!-- 1299 -->
<g id="node11" class="node">
<title>1299</title>
<ellipse fill="white" stroke="black" cx="207.75" cy="-101.76" rx="24.04" ry="24.04"/>
<text xml:space="preserve" text-anchor="middle" x="207.75" y="-98.46" font-family="Times New Roman,serif" font-size="9.00">1299</text>
</g>
<!-- 1253&#45;&gt;1299 -->
<g id="edge5" class="edge">
<title>1253&#45;&gt;1299</title>
<path fill="none" stroke="red" stroke-width="0.3" d="M207.75,-161.54C207.75,-153.74 207.75,-144.89 207.75,-136.46"/>
<polygon fill="red" stroke="red" stroke-width="0.3" points="211.25,-136.57 207.75,-126.57 204.25,-136.57 211.25,-136.57"/>
</g>
<!-- 1339 -->
<g id="node13" class="node">
<title>1339</title>
<ellipse fill="white" stroke="black" cx="273.75" cy="-101.76" rx="24.04" ry="24.04"/>
<text xml:space="preserve" text-anchor="middle" x="273.75" y="-98.46" font-family="Times New Roman,serif" font-size="9.00">1339</text>
</g>
<!-- 1253&#45;&gt;1339 -->
<g id="edge1" class="edge">
<title>1253&#45;&gt;1339</title>
<path fill="none" stroke="green" stroke-width="0.11" d="M222.4,-166.63C231.31,-155.55 242.83,-141.21 252.71,-128.93"/>
<polygon fill="green" stroke="green" stroke-width="0.11" points="255.28,-131.32 258.81,-121.34 249.82,-126.94 255.28,-131.32"/>
</g>
<!-- 935 -->
<g id="node8" class="node">
<title>935</title>
<ellipse fill="white" stroke="black" cx="270.75" cy="-185.84" rx="20.86" ry="20.86"/>
<text xml:space="preserve" text-anchor="middle" x="270.75" y="-182.54" font-family="Times New Roman,serif" font-size="9.00">935</text>
</g>
<!-- 592 -->
<g id="node10" class="node">
<title>592</title>
<ellipse fill="white" stroke="black" cx="330.75" cy="-266.75" rx="20.86" ry="20.86"/>
<text xml:space="preserve" text-anchor="middle" x="330.75" y="-263.45" font-family="Times New Roman,serif" font-size="9.00">592</text>
</g>
<!-- 1299&#45;&gt;237 -->
<g id="edge6" class="edge">
<title>1299&#45;&gt;237</title>
<path fill="none" stroke="red" stroke-width="0.34" d="M207.75,-77.51C207.75,-69.68 207.75,-60.8 207.75,-52.49"/>
<polygon fill="red" stroke="red" stroke-width="0.34" points="211.25,-52.52 207.75,-42.52 204.25,-52.52 211.25,-52.52"/>
</g>
<!-- 500 -->
<g id="node12" class="node">
<title>500</title>
<ellipse fill="white" stroke="black" cx="270.75" cy="-266.75" rx="20.86" ry="20.86"/>
<text xml:space="preserve" text-anchor="middle" x="270.75" y="-263.45" font-family="Times New Roman,serif" font-size="9.00">500</text>
</g>
<!-- 500&#45;&gt;935 -->
<g id="edge7" class="edge">
<title>500&#45;&gt;935</title>
<path fill="none" stroke="red" stroke-width="0.16" d="M270.75,-245.43C270.75,-236.87 270.75,-226.72 270.75,-217.3"/>
<polygon fill="red" stroke="red" stroke-width="0.16" points="274.25,-217.33 270.75,-207.33 267.25,-217.33 274.25,-217.33"/>
</g>
<!-- 1339&#45;&gt;237 -->
<g id="edge2" class="edge">
<title>1339&#45;&gt;237</title>
<path fill="none" stroke="red" stroke-width="0.38" d="M258.77,-82.86C249.5,-71.77 237.5,-57.42 227.46,-45.42"/>
<polygon fill="red" stroke="red" stroke-width="0.38" points="230.35,-43.42 221.25,-37.99 224.98,-47.91 230.35,-43.42"/>
</g>
</g>
</svg>
